<svg width="16" height="17" viewBox="0 0 16 17" fill="none" xmlns="http://www.w3.org/2000/svg">
<path d="M8.5 8.5C8.5 8.22386 8.27615 8 8 8C7.72386 8 7.5 8.22386 7.5 8.5L8.5 8.5ZM8 12.5L7.72265 12.916C7.8906 13.028 8.1094 13.028 8.27735 12.916L8 12.5ZM10.2774 11.5827C10.5071 11.4295 10.5692 11.1191 10.416 10.8893C10.2629 10.6596 9.95242 10.5975 9.72265 10.7506L10.2774 11.5827ZM6.27735 10.7506C6.04759 10.5975 5.73715 10.6596 5.58398 10.8893C5.4308 11.1191 5.49289 11.4295 5.72265 11.5827L6.27735 10.7506ZM12.042 5.20849L11.6884 5.56205L11.6884 5.56205L12.042 5.20849ZM9.95834 3.12484L10.3119 2.77128L10.3119 2.77128L9.95834 3.12484ZM5.4668 14.5L5.4668 14L5.4668 14L5.4668 14.5ZM10.5335 14.5L10.5335 15L10.5335 15L10.5335 14.5ZM3.47866 13.772L3.92416 13.545L3.92416 13.545L3.47866 13.772ZM4.0612 14.3547L4.2882 13.9092L4.0612 14.3547ZM4.0612 2.64532L4.2882 3.09083L4.2882 3.09083L4.0612 2.64532ZM3.47866 3.22803L3.03316 3.00103L3.03316 3.00103L3.47866 3.22803ZM9.47787 2.69649L9.21662 3.12281L9.47787 2.69649ZM9.0925 2.53684L9.20923 2.05066L9.20923 2.05066L9.0925 2.53684ZM12.6296 6.07434L13.1157 5.95762L13.1157 5.95762L12.6296 6.07434ZM12.47 5.68896L12.0437 5.9502L12.0437 5.9502L12.47 5.68896ZM12.5215 13.772L12.967 13.999L12.967 13.999L12.5215 13.772ZM11.9385 14.3547L11.7115 13.9092L11.7115 13.9092L11.9385 14.3547ZM12.6668 7C12.9429 7 13.1668 6.77614 13.1668 6.5C13.1668 6.22386 12.9429 6 12.6668 6V7ZM10.8001 6.5L10.8001 6L10.8001 6L10.8001 6.5ZM9.16667 2.5C9.16667 2.22386 8.94281 2 8.66667 2C8.39053 2 8.16667 2.22386 8.16667 2.5H9.16667ZM9.39453 6.35466L9.62153 5.90915L9.62153 5.90915L9.39453 6.35466ZM8.81199 5.77198L9.2575 5.54498L9.2575 5.54498L8.81199 5.77198ZM7.5 8.5L7.5 12.5L8.5 12.5L8.5 8.5L7.5 8.5ZM9.72265 10.7506L7.72265 12.084L8.27735 12.916L10.2774 11.5827L9.72265 10.7506ZM8.27735 12.084L6.27735 10.7506L5.72265 11.5827L7.72265 12.916L8.27735 12.084ZM13.1667 12.3667V6.717H12.1667V12.3667H13.1667ZM12.3955 4.85494L10.3119 2.77128L9.60478 3.47839L11.6884 5.56205L12.3955 4.85494ZM8.44981 2H5.4668V3H8.44981V2ZM2.83334 4.63334V12.3667H3.83334V4.63334H2.83334ZM5.4668 15H10.5335V14H5.4668V15ZM2.83334 12.3667C2.83334 12.7318 2.83295 13.0357 2.85316 13.2831C2.87385 13.5364 2.9186 13.7741 3.03316 13.999L3.92416 13.545C3.8934 13.4846 3.86548 13.3931 3.84984 13.2017C3.83372 13.0044 3.83334 12.7483 3.83334 12.3667H2.83334ZM5.4668 14C5.08519 14 4.82897 13.9996 4.63164 13.9835C4.44012 13.9678 4.34855 13.9399 4.2882 13.9092L3.83421 14.8002C4.05907 14.9147 4.29693 14.9595 4.55021 14.9802C4.7977 15.0004 5.10167 15 5.4668 15L5.4668 14ZM3.03316 13.999C3.20887 14.3438 3.48913 14.6243 3.83421 14.8002L4.2882 13.9092C4.1315 13.8293 4.00411 13.7019 3.92416 13.545L3.03316 13.999ZM5.4668 2C5.10168 2 4.79771 1.99961 4.55023 2.01983C4.29694 2.04051 4.05908 2.08524 3.83421 2.19982L4.2882 3.09083C4.34854 3.06008 4.44011 3.03215 4.63163 3.01651C4.82896 3.00039 5.08519 3 5.4668 3V2ZM3.83334 4.63334C3.83334 4.25172 3.83372 3.99558 3.84984 3.79833C3.86548 3.60692 3.8934 3.5154 3.92416 3.45502L3.03316 3.00103C2.91859 3.22587 2.87385 3.46364 2.85316 3.7169C2.83295 3.96432 2.83334 4.26822 2.83334 4.63334H3.83334ZM3.83421 2.19982C3.48911 2.37566 3.20886 2.6562 3.03316 3.00103L3.92416 3.45502C4.00412 3.29809 4.13152 3.17066 4.2882 3.09083L3.83421 2.19982ZM10.3119 2.77128C10.0981 2.55748 9.93586 2.39074 9.73912 2.27017L9.21662 3.12281C9.28899 3.16716 9.35739 3.23099 9.60478 3.47839L10.3119 2.77128ZM8.44981 3C8.79974 3 8.89326 3.00321 8.97578 3.02303L9.20923 2.05066C8.98485 1.99679 8.75213 2 8.44981 2V3ZM9.73912 2.27017C9.57514 2.16969 9.39636 2.09558 9.20923 2.05066L8.97578 3.02303C9.06075 3.04342 9.142 3.07709 9.21662 3.12281L9.73912 2.27017ZM13.1667 6.717C13.1667 6.41396 13.1696 6.18183 13.1157 5.95762L12.1434 6.19106C12.1632 6.27375 12.1667 6.36779 12.1667 6.717H13.1667ZM11.6884 5.56205C11.9354 5.80902 11.9993 5.87771 12.0437 5.9502L12.8963 5.42771C12.7759 5.23109 12.6098 5.06917 12.3955 4.85494L11.6884 5.56205ZM13.1157 5.95762C13.0709 5.77077 12.997 5.59193 12.8963 5.42771L12.0437 5.9502C12.0893 6.02457 12.1229 6.10581 12.1434 6.19106L13.1157 5.95762ZM12.1667 12.3667C12.1667 12.7483 12.1663 13.0045 12.1502 13.2018C12.1346 13.3932 12.1067 13.4847 12.076 13.545L12.967 13.999C13.0816 13.7741 13.1263 13.5363 13.1469 13.283C13.1671 13.0357 13.1667 12.7317 13.1667 12.3667H12.1667ZM10.5335 15C10.8986 15 11.2024 15.0004 11.4498 14.9802C11.703 14.9595 11.9407 14.9147 12.1655 14.8002L11.7115 13.9092C11.6511 13.9399 11.5596 13.9678 11.3683 13.9835C11.1712 13.9996 10.9151 14 10.5335 14L10.5335 15ZM12.076 13.545C11.9962 13.7016 11.8686 13.8291 11.7115 13.9092L12.1655 14.8002C12.5103 14.6245 12.7911 14.3442 12.967 13.999L12.076 13.545ZM12.6668 6H10.8001V7H12.6668V6ZM9.16667 4.36667V2.5H8.16667V4.36667H9.16667ZM10.8001 6C10.4185 6 10.1623 5.99961 9.96498 5.98348C9.77346 5.96784 9.68188 5.9399 9.62153 5.90915L9.16754 6.80016C9.3924 6.91473 9.63026 6.95947 9.88355 6.98016C10.131 7.00038 10.435 7 10.8001 7L10.8001 6ZM8.16667 4.36667C8.16667 4.73178 8.16628 5.03569 8.1865 5.28311C8.20719 5.53637 8.25193 5.77413 8.36649 5.99897L9.2575 5.54498C9.22673 5.48461 9.19881 5.39309 9.18317 5.20168C9.16706 5.00443 9.16667 4.74829 9.16667 4.36667H8.16667ZM9.62153 5.90915C9.46484 5.82931 9.33745 5.70189 9.2575 5.54498L8.36649 5.99897C8.5422 6.34383 8.82247 6.62434 9.16754 6.80016L9.62153 5.90915Z" fill="#F5F5F5" fill-opacity="0.5"/>
</svg>
