<svg width="16" height="16" viewBox="0 0 16 16" fill="none" xmlns="http://www.w3.org/2000/svg">
<circle cx="8" cy="8" r="8" fill="#FF4F40"/>
<path d="M10.2973 5.72386L8.77625 5.12135C8.62664 5.02093 8.50197 4.8954 8.42716 4.71967L7.82873 3.18829C7.70406 2.93724 7.35497 2.93724 7.23029 3.18829L6.63186 4.71967C6.50719 4.8954 6.38251 5.02093 6.20797 5.09624L4.68695 5.69875C4.43761 5.82428 4.43761 6.17574 4.68695 6.30127L6.20797 6.90378C6.38251 6.97909 6.50719 7.10462 6.58199 7.28035L7.18043 8.81173C7.3051 9.06278 7.65419 9.06278 7.77886 8.81173L8.37729 7.28035C8.4521 7.10462 8.57677 6.97909 8.75131 6.90378L10.2723 6.30127C10.5715 6.20085 10.5715 5.84938 10.2973 5.72386Z" fill="white"/>
<path d="M5.9037 11.3408L5.15275 11.0391C5.06931 11.0056 5.00256 10.9386 4.96918 10.8548L4.66879 10.1006C4.60204 9.96651 4.41848 9.96651 4.36841 10.1006L4.06803 10.8548C4.00128 10.9218 3.93452 10.9889 3.85108 11.0224L3.10013 11.3241C2.96662 11.3911 2.96662 11.5754 3.10013 11.6257L3.85108 11.9274C3.93452 11.9944 4.00128 12.0615 4.03465 12.1453L4.33504 12.8995C4.40179 13.0336 4.58536 13.0336 4.63542 12.8995L4.9358 12.1453C4.96918 12.0615 5.03593 11.9944 5.11937 11.9609L5.87033 11.6592C6.03721 11.5754 6.03721 11.4079 5.9037 11.3408Z" fill="white"/>
<path d="M12.8989 10.3483L12.1404 10.045C12.0562 10.0113 11.9888 9.94385 11.9551 9.85958L11.6517 9.10115C11.5843 8.96631 11.3989 8.96631 11.3483 9.10115L11.0449 9.85958C11.0112 9.94385 10.9438 10.0113 10.8595 10.045L10.1011 10.3483C9.96628 10.4158 9.96628 10.6012 10.1011 10.6517L10.8595 10.9551C10.9438 10.9888 11.0112 11.0562 11.0449 11.1405L11.3483 11.8989C11.4157 12.0337 11.6011 12.0337 11.6517 11.8989L11.9551 11.1405C11.9888 11.0562 12.0562 10.9888 12.1404 10.9551L12.8989 10.6517C13.0337 10.5843 13.0337 10.4158 12.8989 10.3483Z" fill="white"/>
</svg>
