<svg width="20" height="20" viewBox="0 0 20 20" fill="none" xmlns="http://www.w3.org/2000/svg">
<path fill-rule="evenodd" clip-rule="evenodd" d="M10 2C5.58352 2 2 5.58352 2 10C2 14.4165 5.58352 18 10 18C14.4078 18 18 14.4165 18 10C18 5.58352 14.4078 2 10 2ZM15.2842 5.68763C16.2386 6.85032 16.8113 8.33405 16.8287 9.93925C16.6031 9.8959 14.347 9.436 12.0737 9.72235C12.0217 9.60955 11.9783 9.48805 11.9263 9.3666C11.7874 9.0369 11.6312 8.6985 11.475 8.37745C13.9913 7.3536 15.1367 5.87852 15.2842 5.68763ZM10 3.18005C11.7354 3.18005 13.3232 3.83081 14.5293 4.89805C14.4078 5.07159 13.3753 6.45119 10.9458 7.36225C9.82645 5.30585 8.5857 3.62256 8.3948 3.36225C8.9067 3.24078 9.4447 3.18005 10 3.18005ZM7.0933 3.82212C7.2755 4.06507 8.49025 5.75705 9.6269 7.77005C6.43384 8.6204 3.61388 8.60305 3.31019 8.60305C3.75271 6.4859 5.18438 4.72451 7.0933 3.82212ZM3.16269 10.0087C3.16269 9.93925 3.16269 9.86985 3.16269 9.80045C3.4577 9.8091 6.77224 9.8525 10.1822 8.82865C10.3818 9.2104 10.564 9.60085 10.7375 9.9913C10.6507 10.0174 10.5553 10.0434 10.4685 10.0694C6.94577 11.206 5.07159 14.3123 4.9154 14.5726C3.8308 13.3666 3.16269 11.7614 3.16269 10.0087ZM10 16.8373C8.4208 16.8373 6.96312 16.2993 5.80911 15.3969C5.93058 15.1453 7.31885 12.4729 11.1713 11.128C11.1887 11.1193 11.1974 11.1193 11.2148 11.1107C12.1779 13.6009 12.5684 15.692 12.6725 16.2907C11.8482 16.6464 10.9457 16.8373 10 16.8373ZM13.8091 15.6659C13.7397 15.2494 13.3753 13.2538 12.4816 10.7983C14.6248 10.4599 16.4989 11.0152 16.7332 11.0933C16.4382 12.9935 15.3449 14.6334 13.8091 15.6659Z" fill="#F5F5F5"/>
</svg>
