<svg width="20" height="20" viewBox="0 0 20 20" fill="none" xmlns="http://www.w3.org/2000/svg">
<path d="M16.8156 2H3.18125C2.52812 2 2 2.51563 2 3.15313V16.8438C2 17.4813 2.52812 18 3.18125 18H16.8156C17.4688 18 18 17.4813 18 16.8469V3.15313C18 2.51563 17.4688 2 16.8156 2ZM6.74687 15.6344H4.37188V7.99687H6.74687V15.6344ZM5.55938 6.95625C4.79688 6.95625 4.18125 6.34062 4.18125 5.58125C4.18125 4.82188 4.79688 4.20625 5.55938 4.20625C6.31875 4.20625 6.93437 4.82188 6.93437 5.58125C6.93437 6.3375 6.31875 6.95625 5.55938 6.95625ZM15.6344 15.6344H13.2625V11.9219C13.2625 11.0375 13.2469 9.89687 12.0281 9.89687C10.7937 9.89687 10.6062 10.8625 10.6062 11.8594V15.6344H8.2375V7.99687H10.5125V9.04063H10.5437C10.8594 8.44063 11.6344 7.80625 12.7875 7.80625C15.1906 7.80625 15.6344 9.3875 15.6344 11.4438V15.6344Z" fill="#F5F5F5"/>
</svg>
