<svg width="32" height="32" viewBox="0 0 32 32" fill="none" xmlns="http://www.w3.org/2000/svg">
<path d="M20.5945 11.4477L17.5525 10.2427C17.2533 10.0418 17.0039 9.79079 16.8543 9.43933L15.6575 6.37657C15.4081 5.87448 14.7099 5.87448 14.4606 6.37657L13.2637 9.43933C13.0144 9.79079 12.765 10.0418 12.416 10.1925L9.37392 11.3975C8.87523 11.6485 8.87523 12.3515 9.37392 12.6025L12.416 13.8075C12.765 13.9582 13.0144 14.2092 13.164 14.5607L14.3609 17.6234C14.6102 18.1255 15.3084 18.1255 15.5577 17.6234L16.7546 14.5607C16.9042 14.2092 17.1535 13.9582 17.5026 13.8075L20.5446 12.6025C21.1431 12.4017 21.1431 11.6987 20.5945 11.4477Z" fill="#F5F5F5"/>
<path d="M11.8074 22.6816L10.3055 22.0782C10.1386 22.0112 10.0051 21.8771 9.93837 21.7095L9.33761 20.2011C9.20411 19.933 8.83697 19.933 8.73685 20.2011L8.13608 21.7095C8.00258 21.8436 7.86907 21.9777 7.70219 22.0447L6.20029 22.648C5.93328 22.7821 5.93328 23.1508 6.20029 23.2514L7.70219 23.8547C7.86907 23.9888 8.00258 24.1229 8.06933 24.2905L8.67009 25.7989C8.80359 26.067 9.17073 26.067 9.27086 25.7989L9.87162 24.2905C9.93837 24.1229 10.0719 23.9888 10.2388 23.9218L11.7407 23.3184C12.0744 23.1508 12.0744 22.8156 11.8074 22.6816Z" fill="#F5F5F5"/>
<path d="M25.7977 20.6966L24.2809 20.0899C24.1123 20.0225 23.9775 19.8876 23.9101 19.7191L23.3033 18.2022C23.1685 17.9326 22.7977 17.9326 22.6966 18.2022L22.0899 19.7191C22.0224 19.8876 21.8876 20.0225 21.7191 20.0899L20.2022 20.6966C19.9325 20.8315 19.9325 21.2022 20.2022 21.3034L21.7191 21.9101C21.8876 21.9775 22.0224 22.1124 22.0899 22.2809L22.6966 23.7978C22.8314 24.0674 23.2022 24.0674 23.3033 23.7978L23.9101 22.2809C23.9775 22.1124 24.1123 21.9775 24.2809 21.9101L25.7977 21.3034C26.0674 21.1685 26.0674 20.8315 25.7977 20.6966Z" fill="#F5F5F5"/>
</svg>
