<svg width="20" height="20" viewBox="0 0 20 20" fill="none" xmlns="http://www.w3.org/2000/svg">
<path fill-rule="evenodd" clip-rule="evenodd" d="M10 2.00004C5.58352 2.00004 2 5.58356 2 10C2 14.4165 5.58352 18 10 18C14.4078 18 18 14.4165 18 10C18 5.58356 14.4078 2.00004 10 2.00004ZM15.2842 5.68767C16.2386 6.85036 16.8113 8.33409 16.8287 9.93929C16.6031 9.89594 14.347 9.43604 12.0737 9.72239C12.0217 9.60959 11.9783 9.48809 11.9263 9.36664C11.7874 9.03694 11.6312 8.69854 11.475 8.37749C13.9913 7.35364 15.1367 5.87856 15.2842 5.68767ZM10 3.18009C11.7354 3.18009 13.3232 3.83085 14.5293 4.89809C14.4078 5.07163 13.3753 6.45123 10.9458 7.36229C9.82645 5.30589 8.5857 3.6226 8.3948 3.36229C8.9067 3.24082 9.4447 3.18009 10 3.18009ZM7.0933 3.82216C7.2755 4.06511 8.49025 5.75709 9.6269 7.77009C6.43384 8.62044 3.61388 8.60309 3.31019 8.60309C3.75271 6.48594 5.18438 4.72455 7.0933 3.82216ZM3.16269 10.0087C3.16269 9.93929 3.16269 9.86989 3.16269 9.80049C3.4577 9.80914 6.77224 9.85254 10.1822 8.82869C10.3818 9.21044 10.564 9.60089 10.7375 9.99134C10.6507 10.0174 10.5553 10.0434 10.4685 10.0694C6.94577 11.206 5.07159 14.3123 4.9154 14.5726C3.8308 13.3666 3.16269 11.7614 3.16269 10.0087ZM10 16.8373C8.4208 16.8373 6.96312 16.2993 5.80911 15.3969C5.93058 15.1453 7.31885 12.4729 11.1713 11.128C11.1887 11.1193 11.1974 11.1193 11.2148 11.1107C12.1779 13.6009 12.5684 15.692 12.6725 16.2907C11.8482 16.6464 10.9457 16.8373 10 16.8373ZM13.8091 15.6659C13.7397 15.2494 13.3753 13.2538 12.4816 10.7983C14.6248 10.4599 16.4989 11.0152 16.7332 11.0933C16.4382 12.9935 15.3449 14.6334 13.8091 15.6659Z" fill="#4D4D4D"/>
</svg>
