<svg width="24" height="24" viewBox="0 0 24 24" fill="none" xmlns="http://www.w3.org/2000/svg">
<path d="M17.5134 6.53726L13.863 5.09123C13.5039 4.85022 13.2047 4.54897 13.0252 4.12721L11.5889 0.451884C11.2897 -0.150628 10.4519 -0.150628 10.1527 0.451884L8.71647 4.12721C8.41725 4.54897 8.11803 4.85022 7.69913 5.03098L4.04869 6.47701C3.45025 6.77826 3.45025 7.62178 4.04869 7.92304L7.69913 9.36907C8.11803 9.54982 8.41725 9.85108 8.59679 10.2728L10.033 13.9482C10.3322 14.5507 11.17 14.5507 11.4693 13.9482L12.9055 10.2728C13.085 9.85108 13.3842 9.54982 13.8032 9.36907L17.4536 7.92304C18.1717 7.68203 18.1717 6.83852 17.5134 6.53726Z" fill="#4D4D4D"/>
<path d="M6.96889 20.0179L5.16659 19.2939C4.96634 19.2135 4.80614 19.0526 4.72603 18.8515L4.00511 17.0414C3.84491 16.7196 3.40434 16.7196 3.28419 17.0414L2.56327 18.8515C2.40307 19.0124 2.24285 19.1733 2.0426 19.2537L0.240307 19.9777C-0.0801022 20.1386 -0.0801022 20.5811 0.240307 20.7017L2.0426 21.4258C2.24286 21.5867 2.40306 21.7476 2.48317 21.9487L3.20409 23.7587C3.36429 24.0805 3.80485 24.0805 3.925 23.7587L4.64593 21.9487C4.72603 21.7476 4.88623 21.5867 5.08649 21.5062L6.88879 20.7822C7.2893 20.5811 7.2893 20.1788 6.96889 20.0179Z" fill="#4D4D4D"/>
<path d="M23.7573 17.636L21.9371 16.9079C21.7348 16.827 21.573 16.6652 21.4921 16.463L20.764 14.6427C20.6022 14.3192 20.1573 14.3192 20.036 14.6427L19.3079 16.463C19.227 16.6652 19.0652 16.827 18.8629 16.9079L17.0427 17.636C16.7191 17.7978 16.7191 18.2428 17.0427 18.3641L18.8629 19.0922C19.0652 19.1731 19.227 19.3349 19.3079 19.5371L20.036 21.3574C20.1978 21.681 20.6427 21.681 20.764 21.3574L21.4921 19.5371C21.573 19.3349 21.7348 19.1731 21.9371 19.0922L23.7573 18.3641C24.0809 18.2023 24.0809 17.7978 23.7573 17.636Z" fill="#4D4D4D"/>
</svg>
