<svg width="32" height="32" viewBox="0 0 32 32" fill="none" xmlns="http://www.w3.org/2000/svg">
<path d="M23.3512 8.71632L18.4839 6.78828C18.0052 6.46694 17.6062 6.06527 17.3669 5.50293L15.4519 0.60251C15.0529 -0.200837 13.9358 -0.200837 13.5369 0.60251L11.6219 5.50293C11.223 6.06527 10.824 6.46694 10.2655 6.70795L5.39823 8.63598C4.60032 9.03765 4.60032 10.1623 5.39823 10.564L10.2655 12.492C10.824 12.733 11.223 13.1347 11.4623 13.6971L13.3773 18.5975C13.7763 19.4008 14.8933 19.4008 15.2923 18.5975L17.2073 13.6971C17.4467 13.1347 17.8456 12.733 18.4041 12.492L23.2714 10.564C24.2289 10.2427 24.2289 9.11799 23.3512 8.71632Z" fill="#FF4F40"/>
<path d="M9.29182 26.6905L6.88877 25.7251C6.62176 25.6179 6.40816 25.4034 6.30135 25.1352L5.34012 22.7218C5.12652 22.2927 4.53911 22.2927 4.37891 22.7218L3.41768 25.1352C3.20408 25.3497 2.99046 25.5642 2.72346 25.6715L0.320408 26.6369C-0.106803 26.8514 -0.106803 27.4413 0.320408 27.6022L2.72346 28.5676C2.99047 28.7821 3.20407 28.9966 3.31088 29.2648L4.2721 31.6782C4.4857 32.1073 5.07312 32.1073 5.23332 31.6782L6.19455 29.2648C6.30135 28.9966 6.51495 28.7821 6.78196 28.6749L9.18502 27.7095C9.71903 27.4413 9.71903 26.905 9.29182 26.6905Z" fill="#FF4F40"/>
<path d="M31.6763 23.5146L29.2493 22.5438C28.9797 22.436 28.7639 22.2202 28.6561 21.9506L27.6853 19.5236C27.4696 19.0921 26.8763 19.0921 26.7145 19.5236L25.7437 21.9506C25.6358 22.2202 25.4201 22.436 25.1505 22.5438L22.7235 23.5146C22.292 23.7303 22.292 24.3236 22.7235 24.4854L25.1505 25.4562C25.4201 25.564 25.6358 25.7798 25.7437 26.0494L26.7145 28.4764C26.9302 28.9079 27.5235 28.9079 27.6853 28.4764L28.6561 26.0494C28.7639 25.7798 28.9797 25.564 29.2493 25.4562L31.6763 24.4854C32.1078 24.2697 32.1078 23.7303 31.6763 23.5146Z" fill="#FF4F40"/>
</svg>
