<svg width="198" height="32" viewBox="0 0 198 32" fill="none" xmlns="http://www.w3.org/2000/svg">
<path d="M0 0.444442H7.24442C9.76293 0.444442 11.6 1.03703 12.7555 2.22221C13.9111 3.37777 14.4888 5.17035 14.4888 7.59997V9.51108C14.4888 12.7407 13.4222 14.7851 11.2888 15.6444V15.7333C12.474 16.0888 13.3037 16.8148 13.7777 17.911C14.2814 19.0073 14.5333 20.474 14.5333 22.311V27.7777C14.5333 28.6666 14.5629 29.3925 14.6222 29.9554C14.6814 30.4888 14.8296 31.0221 15.0666 31.5554H10.0889C9.91107 31.0517 9.79256 30.5777 9.7333 30.1332C9.67404 29.6888 9.64441 28.8888 9.64441 27.7332V22.0444C9.64441 20.6221 9.40737 19.6296 8.9333 19.0666C8.48886 18.5036 7.70368 18.2222 6.57775 18.2222H4.88887V31.5554H0V0.444442ZM6.66664 13.7777C7.64442 13.7777 8.37034 13.5259 8.84441 13.0222C9.34811 12.5185 9.59996 11.674 9.59996 10.4889V8.08886C9.59996 6.96294 9.39256 6.14813 8.97774 5.64443C8.59256 5.14072 7.97034 4.88887 7.11108 4.88887H4.88887V13.7777H6.66664Z" fill="#FF4F40"/>
<path d="M16.592 0.444442H21.4808V31.5554H16.592V0.444442Z" fill="#FF4F40"/>
<path d="M30.6978 31.9999C28.3571 31.9999 26.5645 31.3332 25.32 29.9999C24.1052 28.6666 23.4978 26.7851 23.4978 24.3555V7.64442C23.4978 5.2148 24.1052 3.33332 25.32 1.99999C26.5645 0.666664 28.3571 0 30.6978 0C33.0385 0 34.8163 0.666664 36.0311 1.99999C37.2756 3.33332 37.8978 5.2148 37.8978 7.64442V10.9333H33.2756V7.33331C33.2756 5.40739 32.4608 4.44443 30.8311 4.44443C29.2015 4.44443 28.3867 5.40739 28.3867 7.33331V24.711C28.3867 26.6073 29.2015 27.5555 30.8311 27.5555C32.4608 27.5555 33.2756 26.6073 33.2756 24.711V19.9555H37.8978V24.3555C37.8978 26.7851 37.2756 28.6666 36.0311 29.9999C34.8163 31.3332 33.0385 31.9999 30.6978 31.9999Z" fill="#FF4F40"/>
<path d="M43.2672 0.444442H49.8894L54.9561 31.5554H50.0672L49.1783 25.3777V25.4666H43.6228L42.7339 31.5554H38.2006L43.2672 0.444442ZM48.6005 21.2444L46.4227 5.86665H46.3339L44.2005 21.2444H48.6005Z" fill="#FF4F40"/>
<path d="M55.9946 0.444442H63.239C65.7575 0.444442 67.5945 1.03703 68.7501 2.22221C69.9056 3.37777 70.4834 5.17035 70.4834 7.59997V9.51108C70.4834 12.7407 69.4168 14.7851 67.2834 15.6444V15.7333C68.4686 16.0888 69.2982 16.8148 69.7723 17.911C70.276 19.0073 70.5279 20.474 70.5279 22.311V27.7777C70.5279 28.6666 70.5575 29.3925 70.6168 29.9554C70.676 30.4888 70.8242 31.0221 71.0612 31.5554H66.0834C65.9057 31.0517 65.7871 30.5777 65.7279 30.1332C65.6686 29.6888 65.639 28.8888 65.639 27.7332V22.0444C65.639 20.6221 65.402 19.6296 64.9279 19.0666C64.4834 18.5036 63.6983 18.2222 62.5723 18.2222H60.8835V31.5554H55.9946V0.444442ZM62.6612 13.7777C63.639 13.7777 64.3649 13.5259 64.839 13.0222C65.3427 12.5185 65.5946 11.674 65.5946 10.4889V8.08886C65.5946 6.96294 65.3871 6.14813 64.9723 5.64443C64.5872 5.14072 63.9649 4.88887 63.1057 4.88887H60.8835V13.7777H62.6612Z" fill="#FF4F40"/>
<path d="M72.5865 0.444442H80.0532C82.4828 0.444442 84.305 1.09629 85.5198 2.39999C86.7346 3.70369 87.342 5.61479 87.342 8.1333V23.8666C87.342 26.3851 86.7346 28.2962 85.5198 29.5999C84.305 30.9036 82.4828 31.5554 80.0532 31.5554H72.5865V0.444442ZM79.9643 27.111C80.7643 27.111 81.3717 26.874 81.7865 26.3999C82.2309 25.9258 82.4532 25.1555 82.4532 24.0888V7.91108C82.4532 6.84442 82.2309 6.07405 81.7865 5.59998C81.3717 5.12591 80.7643 4.88887 79.9643 4.88887H77.4754V27.111H79.9643Z" fill="#FF4F40"/>
<path d="M96.3753 31.9999C93.9753 31.9999 92.1383 31.3184 90.8643 29.9554C89.5902 28.5925 88.9531 26.6666 88.9531 24.1777V7.82219C88.9531 5.33331 89.5902 3.4074 90.8643 2.04444C92.1383 0.681479 93.9753 0 96.3753 0C98.7753 0 100.612 0.681479 101.886 2.04444C103.16 3.4074 103.798 5.33331 103.798 7.82219V24.1777C103.798 26.6666 103.16 28.5925 101.886 29.9554C100.612 31.3184 98.7753 31.9999 96.3753 31.9999ZM96.3753 27.5555C98.0642 27.5555 98.9087 26.5332 98.9087 24.4888V7.51108C98.9087 5.46665 98.0642 4.44443 96.3753 4.44443C94.6865 4.44443 93.842 5.46665 93.842 7.51108V24.4888C93.842 26.5332 94.6865 27.5555 96.3753 27.5555Z" fill="#FF4F40"/>
<path d="M115.333 0.444442H121.955L127.022 31.5554H122.133L121.244 25.3777V25.4666H115.688L114.8 31.5554H110.266L115.333 0.444442ZM120.666 21.2444L118.488 5.86665H118.4L116.266 21.2444H120.666Z" fill="#FF4F40"/>
<path d="M128.06 0.444442H135.527C137.957 0.444442 139.779 1.09629 140.994 2.39999C142.208 3.70369 142.816 5.61479 142.816 8.1333V23.8666C142.816 26.3851 142.208 28.2962 140.994 29.5999C139.779 30.9036 137.957 31.5554 135.527 31.5554H128.06V0.444442ZM135.438 27.111C136.238 27.111 136.845 26.874 137.26 26.3999C137.705 25.9258 137.927 25.1555 137.927 24.0888V7.91108C137.927 6.84442 137.705 6.07405 137.26 5.59998C136.845 5.12591 136.238 4.88887 135.438 4.88887H132.949V27.111H135.438Z" fill="#FF4F40"/>
<path d="M148.473 0.444442H155.096L160.162 31.5554H155.273L154.384 25.3777V25.4666H148.829L147.94 31.5554H143.407L148.473 0.444442ZM153.807 21.2444L151.629 5.86665H151.54L149.407 21.2444H153.807Z" fill="#FF4F40"/>
<path d="M161.201 0.444442H168.179L171.29 22.711H171.379L174.49 0.444442H181.467V31.5554H176.845V7.99997H176.756L173.201 31.5554H169.112L165.556 7.99997H165.467V31.5554H161.201V0.444442Z" fill="#FF4F40"/>
<path d="M183.782 0.444442H197.116V4.88887H188.671V13.1111H195.382V17.5555H188.671V27.111H197.116V31.5554H183.782V0.444442Z" fill="#FF4F40"/>
</svg>
